<?xml version="1.0"?>
<svg viewBox="0 0 1000 1000" width="50" height="50" xmlns="http://www.w3.org/2000/svg" xmlns:svg="http://www.w3.org/2000/svg">
<g class="layer">
 <g class="layer" fill="#ffffff" stroke="#ffffff">
  <title>Layer 2</title>
  <svg id="svg_1" x="225" y="10">
   <g display="inline" id="layer5">
    <path d="m294.82336,554.53544c6.45642,-0.58914 -4.77283,3.97193 0.83785,2.99694c-0.76178,5.77987 -9.52737,-3.1544 -12.29867,3.02217c2.87863,1.25673 1.06737,5.26622 -2.08059,2.69848c-2.19984,-0.62218 -6.2507,7.15107 -5.55949,10.74708c-6.49916,5.28201 -5.7672,13.97302 -9.25506,20.39975c1.61747,7.01143 12.16947,12.76958 11.01017,21.06241c1.20154,3.40506 6.84352,10.40366 8.1678,4.7955c1.50218,-9.3211 2.81155,3.85455 -0.07752,4.5182c-0.46312,3.47759 1.06291,5.39845 3.72687,7.52458c0.61071,0.79834 3.61606,-3.79189 5.04667,-6.73857c1.28553,-6.16966 2.44036,-0.46677 5.32645,0.13865c1.01966,-1.7082 8.47043,-6.16177 5.43476,-2.75967c4.11595,5.29335 0.7747,8.27161 -3.02771,12.11926c-0.07205,4.50143 3.79843,2.26478 2.39116,5.93628c1.66666,2.54405 -5.04817,2.62249 -8.40085,3.31526c-3.15592,7.33609 -2.74149,21.39447 8.85106,15.9743c-3.24039,2.83024 -10.73338,7.83247 -12.68676,14.71018c3.37555,5.5973 3.82526,13.64737 9.92292,17.33121c2.28929,4.73678 10.19074,-1.71166 7.65548,2.96049c-5.19377,7.9721 -12.76627,-3.27775 -13.47884,-9.14397c-10.56145,-0.96561 -5.86708,11.12453 -4.3906,13.85465c2.43108,2.2757 -0.04935,0.09222 2.29412,1.76539c2.34345,1.67317 0.48791,0.34302 0.48791,0.34302c0,0 4.3029,3.52886 5.23759,5.57074c0.93471,2.04187 -2.67951,0.495 -2.49258,1.98c0.18694,1.485 1.12164,1.17563 2.99109,4.455c1.8694,3.27937 3.73884,8.6625 3.73884,8.6625l4.48661,0.7425l0.74776,5.1975c0,0 -1.62015,2.7225 -2.99104,2.475c-1.37089,-0.2475 -0.62313,-2.59876 -2.49258,-3.46501c-1.86944,-0.86625 -3.3026,0.495 -4.98511,0c-1.68245,-0.49499 -0.56086,-1.91812 -1.74481,-1.97999c-1.18396,-0.06188 -1.3709,1.05187 -2.99104,1.73249c-1.62015,0.68063 -1.99408,-1.97999 -3.48959,0.99c-1.49552,2.97001 -3.10344,9.56519 -2.49258,10.89001c0.24607,0.53371 7.97619,4.82624 8.22544,5.19749c0.89873,1.33856 -5.89769,8.53204 -8.22544,12.1275c-1.12164,1.7325 0.13148,3.5523 1.74482,3.7125c0.62313,0.06187 3.67653,-3.95999 4.73585,-3.465c1.05933,0.495 0.24076,4.41727 -0.4985,5.445c-0.47083,0.65456 -4.73586,0.55687 -7.47769,1.7325c-2.74183,1.17563 -3.48959,2.97 -3.48959,2.97c0,0 5.00836,8.66856 8.9732,8.16749c3.42728,-0.43312 5.04743,-0.68062 4.73586,0c-1.78239,3.89364 -6.65708,9.89213 -8.97321,16.58251c-0.68544,1.97999 1.12169,6.43499 3.24035,11.13749c2.11864,4.7025 2.52114,6.54994 5.23435,7.6725c0.74777,0.30937 3.9881,-1.67062 4.73586,-1.485c2.67708,0.66456 1.85078,6.69503 7.90755,6.85579c3.30079,0.08761 0.95823,16.22448 1.16174,19.33162c5.46545,-2.74272 8.78981,-10.69262 15.28003,-12.85921c1.94642,-3.52544 4.06725,0.00445 0.34187,0.87878c-5.97193,4.65487 -9.8106,12.50116 -14.02246,18.91951c-5.5744,0.21809 -9.18648,8.50598 -12.56253,9.6063c-0.26882,4.3603 -3.19964,3.60044 -2.36034,7.58624c2.22618,4.94847 -1.48678,8.04021 -6.56874,6.50667c-5.91925,3.01575 -12.8234,2.49471 -18.02859,-1.23353c-4.85437,0.66462 -10.26927,-1.38107 -15.46651,-0.37006c-5.67776,1.05146 -17.63106,-0.52402 -19.24007,4.42544c-4.24615,2.60325 2.89205,7.20632 -2.26694,10.60842c-3.39741,6.74646 -9.07517,0.53091 -13.68058,1.23353c-0.04373,2.62102 0.63663,5.34841 -0.85064,7.59246c-1.48727,2.24405 -1.8356,-8.12235 -0.16879,-0.6288c1.66681,7.49355 -1.95412,13.06554 -6.58985,17.6765c-5.51576,0.86743 -2.03437,9.58854 -9.10001,8.69595c-3.79196,-0.57335 -2.1273,1.64603 -3.91272,2.43648c-4.4454,-1.06627 -4.2849,5.44385 -5.52868,10.19199c-6.09815,-0.25067 -3.06846,5.51638 -7.59337,7.83296c-2.45228,4.71656 -8.64186,5.39452 -10.88544,9.65271c-4.01209,-3.1559 -7.97549,1.1442 -12.62464,2.806c-1.65821,2.3763 -2.63912,7.3697 -0.23305,9.1593c7.68828,3.1667 5.53216,-9.0236 11.64671,-5.7976c7.51585,0.4164 9.03989,7.004 12.09642,11.9036c1.11806,-0.8561 3.12162,-4.3929 5.82336,-4.4408c4.99946,-3.5945 -4.02303,-5.7092 0.20175,-7.3859c2.77924,-2.7137 0.0144,-4.3785 2.71763,-7.5709c0.47057,-0.0311 1.21893,4.834 1.05594,5.4892c1.94841,-3.2131 3.90825,-4.1989 6.52202,-6.106c4.92244,0.3217 4.89312,-3.29453 5.77665,-6.6764c0.82586,-4.41902 4.40168,-0.14308 5.65241,-1.21824c6.89967,1.80591 11.78287,-4.34797 18.71186,-1.81921c2.27289,4.99977 6.96408,-0.04515 2.23478,-1.17374c5.93899,-2.24568 5.6796,7.66757 11.88111,4.70462c4.77535,-2.00426 6.2994,7.35777 10.2951,6.24467c4.10701,1.9608 7.2003,-0.26252 7.00352,-5.14979c3.38847,-2.08764 2.74198,-5.46062 5.5282,-3.93202c3.88935,-4.3756 -0.72848,-3.76278 -1.02515,-8.09498c5.54012,-0.45739 -0.54313,-5.62986 3.99124,-8.78921c3.51419,-2.04569 -1.98319,-12.72319 1.92554,-6.52196c2.47067,7.58922 7.17248,-3.24222 11.63081,-3.22298c7.71064,1.10081 14.53478,-6.31965 21.911,-1.17186c5.60969,3.86048 16.19101,7.61685 14.76784,15.08024c0.84675,-0.64538 0.76426,-2.01806 1.73921,-2.63681c-2.52384,-3.01377 -1.57821,-9.34774 4.59647,-6.81504c7.01496,-0.31036 11.96275,3.81163 18.18364,2.96048c2.6575,-2.67332 1.87436,-4.25521 1.35111,-6.53774c-3.85557,0.2324 -4.02899,-2.19372 -6.19604,-1.12598c-2.47564,-0.86544 2.45079,-2.52085 4.92294,-2.17399c1.2249,5.8149 5.62907,-3.21904 10.24839,0.23141c0.48697,-0.40805 0.93868,-2.92545 4.89164,-2.08171c5.01736,3.51311 6.49221,-0.55163 11.04097,-2.57513c7.59039,0.39375 6.51705,-6.23627 1.47535,-9.02013c-7.21671,-3.94287 2.24208,-0.92416 4.16167,2.34373c3.19765,0.98831 8.03363,8.73789 10.06253,4.04008c-3.12013,-3.11147 -1.1901,-3.91723 2.39117,-2.74487c-4.2705,3.11838 1.71485,7.32623 1.86343,0.87878c4.50603,-4.25867 0.11578,5.10635 1.50615,3.91672c4.71275,2.286 0.99334,-8.74479 3.75817,-3.59304c-0.40746,0.25114 5.52024,-0.27533 1.53746,2.55983c-2.91689,1.49159 8.49975,8.14727 7.00303,2.72908c1.92754,-1.57942 12.50091,-2.58648 17.79605,-3.7312c11.08271,-5.01458 21.87324,2.92102 32.31492,4.98003c3.98129,-7.52161 12.85919,-7.59858 20.29603,-10.19197c3.62649,-6.17756 9.43894,-4.84337 15.32689,-3.42282c-2.03635,-7.29219 5.03575,-13.3084 11.78585,-13.76974c5.77019,-1.2444 12.7116,-6.07936 9.55022,-13.42977c-3.89382,-5.40289 3.67967,-4.98744 2.578,-10.43869c-1.66616,-0.74258 -3.71096,0.10461 -5.45067,0.2926c-9.28288,-0.84079 -17.84374,5.69598 -26.72462,2.17448c3.22449,0.92268 10.95749,-1.59176 3.64885,-4.94994c-3.54798,-1.94554 -7.3663,-1.29078 -7.53128,0.5245c-1.16178,0.08783 -1.33073,4.2034 -4.98456,2.22036c-6.01964,1.18914 -0.61916,-5.25092 3.21455,-3.73169c4.88719,-2.86033 -6.29344,-4.7654 -9.0533,-3.87035c-1.20652,0.59062 -7.34443,4.93761 -4.79822,2.06642c1.74616,-5.35997 8.36607,-3.20966 11.47527,-5.75124c4.63175,0.94933 10.16494,0.51315 13.43265,-4.24041c4.70231,-3.6187 -1.55534,-2.12711 -2.42246,-1.71166c-5.44126,-3.60341 1.8843,0.42138 3.64885,-3.33055c3.45804,-5.18678 -0.89147,-9.97439 -5.65192,-5.5968c-1.84852,0.92169 -4.73613,1.15409 -4.82955,-1.37268c6.47931,1.4536 7.33898,-5.56425 13.1991,-5.68958c3.02323,5.44879 10.70158,1.91396 13.71189,-2.6827c3.27964,-5.41917 -1.05942,-0.18305 -3.35418,-2.77595c1.99264,-2.25835 7.33994,-6.58561 0.32598,-5.41177c-5.90286,0.78206 -4.02104,-2.48139 0.404,-0.84818c6.20398,2.04817 -1.04303,-5.95009 3.24535,-2.06593c2.15413,7.99085 7.35336,-1.58041 9.17754,-5.35059c6.40623,-0.70164 8.25774,-8.12507 7.93474,-14.09342c1.26267,-7.74859 6.65221,-14.62532 6.8793,-22.21897c-0.9819,-10.23935 -1.67162,-22.49035 -12.68675,-27.63124c-5.95156,-7.49448 -15.50725,-7.5675 -23.69642,-10.60843c-5.15251,-1.38846 -0.44871,0.70905 -1.84803,1.17187c-6.15182,-0.88272 -10.8119,-0.97795 -17.59432,-0.72483c-6.18263,-2.16658 -9.29282,4.3154 -10.12416,10.05333c-2.96261,2.68566 -2.18245,8.24793 -5.49738,3.00687c-7.19485,3.12035 -7.89599,-11.00118 -15.65285,-6.36801c0.86464,-3.35621 6.20449,-7.92227 9.39469,-12.08867c6.00325,-3.57529 9.67296,-8.98558 7.00354,-16.09767c-3.20859,-9.76517 -5.7528,-19.9833 -15.32688,-23.6997c-3.10373,-5.55733 -8.85106,-5.80898 -12.68675,-11.31746c-1.29,-6.76374 -6.76899,-3.78252 -11.45987,-3.79288c-3.51915,3.70011 -6.2512,-0.88273 -8.99119,-0.55559c-5.84026,2.95556 -3.6583,-1.75557 1.14887,-2.03485c5.75726,5.28547 14.7082,-4.47428 19.13125,1.72696c3.44661,5.02987 8.42818,7.48954 14.02247,5.3348c5.65838,-0.39128 2.04481,8.33329 4.34801,4.50241c0.19926,-7.75303 -7.77773,-13.69572 -11.1339,-20.47673c-5.07599,-6.52689 -11.24868,-20.84875 0.26387,-23.88424c-1.98269,-3.40654 -11.35701,-2.5322 -9.426,-7.97211c-6.23231,-2.29043 -7.18788,-7.41849 -9.022,-13.09079c-3.28014,-4.21919 -3.56339,-10.08096 -9.62774,-11.22519c-5.64496,-6.38923 -14.3713,-6.00486 -20.93257,-10.50037c-4.97513,-4.1284 -2.60981,3.74009 -6.49121,1.06381c2.09201,-2.89882 -0.75781,-5.26672 1.14935,-7.58626c-7.99785,-3.7539 -8.3283,-13.94835 -9.45679,-21.47885c-2.75342,-5.99894 -5.77367,-10.91039 -7.45374,-17.17677c1.15235,-5.02838 -3.99868,-9.00432 -2.11189,-14.21676c-2.32458,-3.88367 -1.6597,-7.91191 -1.49075,-12.52041c-1.61051,-5.06589 -1.13198,-9.55251 -5.17091,-13.13717c-4.40764,-0.98239 -2.86372,0.09473 -4.34801,-3.36164c-1.19657,0.96759 -4.03694,0.14754 -4.93834,-3.7312c-3.25579,-2.94174 -6.83196,-6.74277 -9.03672,-10.64667c-2.20476,-3.9039 -0.81843,-0.2809 -2.19772,1.9085c-1.37929,2.1894 -2.45559,2.41459 -3.0013,3.49828c-0.5325,1.05754 -1.03051,1.72332 -1.76252,2.45012c-0.59376,0.58961 -1.63386,1.27234 -2.29123,1.9251c-0.6199,0.61552 -0.71297,1.93299 -1.23374,2.45013c-0.76833,0.76291 -1.38112,1.59732 -2.29128,2.27512c-0.90895,0.67691 -1.12551,1.14519 -1.41,2.2751c-0.19966,0.79307 0.02808,1.86162 0.17626,2.45014c0.21899,0.86989 0.30138,1.82354 0.70497,2.62513c0.4994,0.99176 1.86816,2.03001 2.46753,2.62513c0.41786,0.41494 0.66681,2.09648 1.23375,2.80014c0.45771,0.56813 0.17889,2.11051 0.35251,2.80015c0.26292,1.04432 0,1.95211 0,2.97515c0,1.32033 -1.35122,1.80839 -2.29128,2.27511c-0.88157,0.43769 -1.3218,1.69168 -1.76251,2.27512c-0.66268,0.87738 -1.27443,0.72024 -2.29123,1.22506c-0.82423,0.4092 -1.48831,1.78895 -2.46753,2.27512c-0.1051,0.05218 -0.23499,0 -0.35246,0c-1.05724,0 -2.05907,1.34452 -2.64379,1.92509c-0.83293,0.82706 -1.84868,1.29021 -2.99626,1.57508c-0.66875,0.16601 -1.68832,1.27114 -2.29123,1.75009c-0.81463,0.64712 -1.85941,1.73039 -2.64378,1.9251c-0.80442,0.19969 -0.8546,1.29414 -1.05749,2.1001c-0.24493,0.97288 -0.44921,1.59215 -0.88128,2.45014c-0.45036,0.89437 -0.95035,1.36232 -1.41,2.27511c-0.59908,1.18979 -1.50968,2.19909 -2.46749,3.15016c-0.93633,0.92973 -1.71028,1.37414 -2.81999,1.9251c-1.2571,0.62411 -1.57289,1.26549 -2.82005,1.57508c-0.74781,0.18564 -1.70606,2.33529 -2.29122,2.80013c-0.66761,0.53033 -1.36747,0.64573 -2.29128,0.87506c-1.14733,0.28481 -1.4028,1.22506 -2.82,1.22506c-0.49751,0 -1.61835,3.71584 -2.02548,4.01904c-0.40712,0.3032 3.70296,0.43494 -0.15588,1.05339m63.95539,-59.91232c-2.74198,2.51494 -4.99848,-3.27973 -0.15156,-0.38931l0.15156,0.38931zm123.44281,228.04458c4.05535,1.57498 -4.40764,0.40855 -0.41344,-0.0227l0.41344,0.0227zm27.28964,88.75056c-1.16277,2.0087 -1.39732,-1.08206 0,0zm-12.97496,8.02836c-5.75776,2.97627 -4.11098,-2.45228 0.64797,-0.73125c0.64401,0.57632 -0.2236,0.73914 -0.64797,0.73125zm-362.01805,141.32093c4.59349,1.0919 -2.43836,1.1862 0,0zm-0.3861,3.0251c2.52433,2.4247 -3.29157,2.0916 0,0zm-2.07115,-2.279c3.48587,1.8848 -1.33968,2.0624 0,0zm83.37203,-95.68898c1.4818,4.35587 -2.26395,3.15835 0,0zm70.32749,-240.33802c-2.57452,3.98186 6.75805,11.24296 0.42784,6.56933c-0.61666,-1.58781 -3.14547,-6.28858 -0.42784,-6.56933zm4.27895,-37.96434c0.22112,-0.03207 0.4979,0.26053 0.83879,1.09489c-1.60802,5.28497 -1.79685,-0.95574 -0.83879,-1.09489zm9.73656,15.78929c0.11329,0.00443 0.31355,0.10854 0.63655,0.33946c3.66525,2.12613 -1.52057,14.98354 0.24846,6.19828c1.96232,-1.61889 -1.67759,-6.56637 -0.88501,-6.53774z" id="path2408"/>
    <path d="m393.23459,906.80114c-5.72249,1.06677 -4.35298,10.09478 -11.81567,7.32475c-2.63167,-3.99963 -11.20296,-6.80617 -12.07704,-6.63297c2.15016,-4.71509 7.28877,-2.98764 8.68112,-5.06392c3.85359,-5.91605 8.79491,0.74752 13.70693,0.45492c0.13813,1.33765 3.01727,2.70984 1.50466,3.91722z" id="path4771"/>
   </g>
   <g display="inline" id="layer1">
    <path d="m294.62265,553.9605c-0.40712,0.3032 3.70296,0.43494 -0.15588,1.05339c-3.8588,0.61844 -7.42193,1.50021 -11.4953,0.94691c-4.07337,-0.55331 -7.95414,-1.49499 -10.86705,-1.29615c-1.24776,2.05754 -4.48467,-2.17102 -3.01281,3.19141c1.47137,5.46112 -2.03785,7.03167 -6.8942,6.13711c-3.60612,3.22495 -5.94162,1.25327 -5.71453,0.37006c-1.94643,3.29995 0.8691,5.06193 -4.7366,7.38592c-3.94204,4.00653 -8.19812,0.46874 -6.58413,-4.24041c-1.63883,4.009 -1.96829,7.95435 -5.9784,3.4692c-2.73403,-1.52218 -0.02733,-8.98756 -3.97532,-3.68482c-4.19646,0.90838 -5.92374,-5.60273 -6.98813,-5.55092c-3.85706,3.72874 1.06141,6.82393 2.62471,9.92949c-2.52731,1.42103 1.51907,7.41257 -1.58417,9.26731c-6.06784,-0.08634 -8.54646,-5.62443 -12.31407,-8.97423c-3.77606,-1.5957 -7.83388,-4.9381 -10.59076,-6.52195c-6.12598,1.85523 -7.3787,6.2856 -4.11496,11.1788c1.7879,2.70194 3.34573,7.36718 2.09648,8.48032c-6.56326,-1.45804 -2.26245,-8.40137 -6.72377,-11.20989c-4.38528,-4.78612 -12.56451,-14.50936 -6.66214,-21.00073c6.32374,-2.3521 1.57274,11.26467 7.96655,8.21832c-2.95963,-5.14632 -5.36669,-11.28489 -1.66169,-17.25373c2.74298,-6.12279 10.21709,-10.19593 9.03791,-18.37971c3.7378,-3.42135 3.61108,-9.76666 9.82948,-10.54724c3.04958,-3.68039 -1.18315,-8.11915 -1.50614,-9.17407c1.16825,-6.52294 -7.82245,-5.89039 -8.9912,-10.48507c-7.24652,-2.46016 3.10473,-7.30056 -2.40706,-11.82666c-1.9648,-6.49186 1.51212,-17.66031 9.13083,-11.53358c2.38222,0.04786 13.21597,2.3225 9.13083,0.38536c-6.9931,-0.22944 -12.19431,-8.35204 -15.34228,-11.02487c0.25095,3.25999 6.86689,8.58444 -0.35728,6.50716c-4.14974,-3.25604 1.10116,-10.91138 0.32598,-11.65693c-3.14597,6.42327 -2.96361,-8.167 -3.50922,0.29308c1.26614,2.75228 1.60205,10.74412 -0.8229,11.04017c0.75333,1.61396 -0.68722,10.06715 -4.23968,11.73391c-3.32834,-0.40115 -2.3514,-13.11054 -4.19248,-8.18774c3.2558,7.82704 -4.77188,0.74654 -5.04668,-1.00212c-1.01619,4.26903 -2.55613,7.268 -0.4661,11.53357c-5.52421,-0.95672 -8.47739,-5.98758 -7.15857,-11.42551c-0.05615,-5.5751 5.02183,-11.72207 9.19295,-15.41922c5.44768,-1.85031 4.79473,-8.47391 11.07177,-10.17669c1.44355,-2.88993 -5.77018,2.34866 -6.75507,2.698c-1.16775,6.77409 -10.08739,7.3203 -11.77045,14.13979c-1.15929,3.46032 -5.2827,5.77 -6.58413,3.53087c-0.36374,8.11964 3.23592,13.6153 6.53743,20.80041c-4.49163,3.25161 -9.94279,10.08393 -7.87264,15.97431c1.0639,2.35162 -1.7884,6.6241 -2.26743,10.34642c-0.94811,3.67792 -4.60193,4.83843 -0.57443,7.15452c2.88063,7.21915 -9.22524,11.36236 -14.24012,8.43443c-1.73522,-6.23626 3.63097,-9.47208 5.09339,-14.21676c-0.76574,-6.65913 1.13346,-13.91381 3.0282,-19.19681c1.89674,-5.35651 9.24413,-9.42915 9.59694,-13.98535c-2.74943,3.36164 -6.45543,9.85843 -9.31717,5.01112c-4.26106,-4.04057 3.75569,-11.15512 2.91938,-12.5357c-2.48309,3.98531 -7.21223,4.43481 -4.19298,-1.0791c4.15869,-3.55259 6.62836,-12.49622 2.08109,-5.67427c-2.00356,2.49372 -4.0926,9.54364 -3.46301,2.49766c3.01032,-3.43713 3.76115,-10.5497 8.38546,-9.3285c-3.64439,-1.90113 2.17549,-7.33215 0.4348,-8.94315c-2.33004,3.69617 -6.39183,7.92277 -3.22996,0.87877c3.03367,-3.61278 0.29418,-4.23399 -0.21715,-7.46289c-0.17591,-7.25617 4.71325,-11.39691 7.62418,-17.22315c2.03089,0.01579 14.2421,0.80377 5.63701,-0.46282c-2.91888,0.5763 -4.41907,-1.62827 -5.34184,-3.28418c-3.12809,4.98645 -0.3061,-5.37625 3.49381,-1.72695c3.30996,-1.27153 8.21552,-5.39648 1.73921,-2.22037c-5.40793,3.18402 -3.87545,-3.68679 -1.33522,-6.53774c3.06399,-2.49373 2.23265,-6.18694 8.21452,-6.46079c3.55494,2.39554 9.01107,-3.57873 2.73304,-0.01529c-8.57876,-0.04835 -2.86721,-6.46522 0.20175,-10.33062c1.5464,-3.56443 -5.59528,4.08695 -5.72994,5.61259c-1.51063,3.85357 -5.78808,3.85111 -7.7176,8.49611c-5.03723,1.42005 -8.34669,13.13521 -14.84536,12.67436c-3.69655,-2.83419 -4.46081,-3.03796 -9.8608,-4.17874c-5.61216,-3.26246 -7.38218,-12.08916 1.11807,-9.02012c3.64786,-3.67446 7.36925,-4.85915 12.06561,-2.43599c8.05053,-2.49174 -1.93102,0.47417 -4.34801,-2.71378c-4.12689,-0.35082 -7.44181,4.89122 -11.94139,2.26625c-3.59121,-1.37218 -14.14669,2.47991 -13.40132,-4.39435l-0.0308,0c2.91291,-3.7391 9.41754,-2.66345 13.82021,-4.0243c2.98398,3.9572 3.71146,-0.0518 4.42554,-0.16973c3.51319,0.77219 5.77713,-2.10984 0.38858,-3.51558c0.06411,-3.75341 10.72742,-1.98304 8.58721,-5.89038c-1.57722,4.17034 -7.85624,0.9957 -2.22073,-0.69375c-2.85925,0.16776 -13.71089,1.17433 -7.39161,-1.00212c1.43956,-0.52599 -0.13665,-4.07167 1.70839,-6.81554c0.69817,-6.26145 6.48326,-3.01477 9.14624,-0.43125c3.20361,0.54275 10.2295,-3.65621 3.0128,-1.17236c-5.55602,1.61939 -2.34446,-6.9009 -7.51636,-3.97791c-5.5242,-4.26754 5.92921,-12.19623 9.34849,-5.67427c3.5102,1.48913 8.86696,-2.28008 2.1894,-0.37006c-1.39086,-2.70046 -5.49787,-3.60193 -8.43216,-5.0575c1.9827,-3.33845 3.02224,-5.18333 2.64011,-8.32638c4.96767,-3.9641 6.79135,2.38615 11.52199,2.6674c0.5794,-0.70707 -5.38657,-3.2521 -7.09646,-5.30422c-4.32863,1.04013 -13.3387,-0.76232 -6.10262,-5.47344c4.03346,0.34834 12.27084,-4.69139 10.48195,-7.09334c-2.36184,4.533 -10.86855,7.70171 -7.82643,1.17235c-2.45079,3.12825 -10.95153,7.87886 -9.73657,1.18716c0.00994,-2.12316 1.18614,-5.25142 -2.53129,-5.39697c-1.21445,-5.16804 1.04502,-16.87381 5.69913,-9.20515c2.22619,-1.39785 2.85329,3.39765 5.17091,2.96048c-2.46868,-2.96641 10.75326,-0.4189 3.40089,-3.28416c-5.3652,0.82696 -4.995,-1.06232 -7.40703,-2.71379c-0.04969,-4.57346 -7.16205,-4.8705 -2.98149,-9.46765c0.68524,-3.47512 8.14892,1.35147 3.72687,-3.77758c-7.0259,0.31331 -4.39125,-8.55878 -5.20221,-12.70544c4.74902,-0.56101 7.54566,-0.66858 7.51584,5.35059c1.46293,4.31442 2.49552,2.80211 3.13704,1.44917c2.79018,-1.06332 -1.01471,-6.44351 -2.31415,-8.86618c0.31555,-5.63184 5.41838,-2.92053 5.46608,1.44965c5.71801,5.71918 3.44114,-7.32326 9.11542,-1.83501c1.8689,3.81164 10.22405,4.44863 3.40089,1.14127c-2.48159,-2.14685 -8.69602,-5.76308 -2.70222,-5.36588c1.54243,3.88613 6.51605,0.83534 9.0066,5.0575c2.99839,1.56856 5.40743,7.05731 2.98149,0.8018c-3.18324,-2.57316 -7.11782,-4.23054 -4.7048,-7.66372c-4.73909,-1.97959 -9.19244,-6.28908 -11.6,-8.95845c-4.33211,-3.59502 1.15533,-6.83725 2.90397,-1.52663c1.9022,-1.10179 8.44061,0.57039 4.78233,-4.08597c1.45695,-1.29324 -0.21318,-1.45557 1.7705,-3.33055c-4.24713,-0.97104 -4.93238,-5.89581 -7.82642,-8.97374c1.9643,-2.60917 5.66136,3.16181 9.56563,-0.5092c3.35517,0.88914 4.65908,-3.39025 8.24581,-0.16924c2.79814,0.06809 4.26553,3.15933 3.55593,-0.12335c1.23335,-0.02862 -11.05984,-2.99454 -8.57179,-6.83084c-2.17699,0.35822 -0.6286,-10.64543 2.71763,-6.89252c6.31729,2.25096 -1.48379,-1.88731 -0.48151,-2.40539c-0.58736,-4.31147 7.87512,0.5536 3.72687,-3.43861c-5.81441,-0.90049 -4.85785,-6.51308 -0.38809,-9.57522c1.11607,-2.04471 0.21317,-4.63119 1.08675,-6.69169c3.47443,1.60607 8.57727,1.47136 9.45681,5.93628c2.76434,-1.11414 0.84923,-6.10453 3.16833,-0.92516c7.21174,1.79899 1.3849,7.47573 -0.8542,12.0117c3.54252,-0.97351 4.46727,-6.62755 8.32334,-9.03591c-2.36929,-7.65632 14.12384,-0.05033 6.64625,5.02691c-3.00733,5.83907 0.92526,3.62512 1.78591,-0.60147c1.9017,-5.208 8.90225,-3.10901 9.00611,-3.26888c1.56329,-2.91904 3.78153,-0.00542 5.57489,-3.4539c3.98378,4.12396 5.05811,-6.99712 6.36699,0.18503c6.50959,0.99472 12.23306,0.03503 17.2057,-5.15027c4.54778,-1.11511 4.94382,1.47877 7.90395,1.64998c3.30796,-0.42779 10.81586,1.29472 4.82952,-3.51558c0.05466,-1.87646 0.41443,-2.52283 0.99383,-2.57513c1.48031,-0.09424 4.39521,3.7988 7.32951,1.41906c3.41381,1.65787 7.99835,-0.26398 11.02506,1.35689c0.0492,5.26622 -7.01346,9.22094 -5.43476,14.77137c2.26842,1.6258 7.57647,-0.3676 3.36958,4.50241c-2.13475,7.75994 -7.89002,12.98224 -15.69955,15.4656c-4.33311,6.09812 -8.91517,12.52337 -15.32637,16.51362c-3.98179,2.98959 -7.88556,5.52723 -9.95422,9.52932c-4.94332,1.55376 -7.00204,5.27115 -5.9784,9.37489c-0.43132,3.97692 -6.3948,4.28185 -10.03123,2.99157c2.15164,3.91377 8.54049,4.36869 12.22065,2.08122c3.13355,1.48123 -1.34814,3.42085 3.8824,1.49604c2.36929,-0.13174 5.70608,-7.76142 4.42553,-1.41906c-3.43667,4.9149 -6.93347,10.92223 -11.44446,14.04703c0.88947,-4.32775 -1.86244,-5.97328 -5.04718,-2.43599c-3.47542,4.08794 -9.70973,1.2888 -11.36645,7.18511c-4.63722,2.33483 -5.55403,8.86469 -0.60574,2.76017c3.79445,-5.40883 8.35763,-7.1866 13.3233,-5.58152c6.82067,-3.84124 2.58148,1.96478 -0.07751,5.24204c-0.4512,3.1396 -3.79744,3.12529 -5.27974,5.44336c-5.57588,-1.36529 2.38669,1.57349 -2.29823,4.5483c4.59797,2.17892 7.5889,-3.81904 10.49735,-6.47558c-4.83648,-4.25422 8.47887,-0.18701 11.30483,-3.09963c3.82277,-4.91541 9.17256,-5.43201 14.48808,-6.4297c6.98365,-10.06221 17.31502,1.67762 26.47666,0.15444c3.98526,-3.24963 8.1201,-3.04783 12.82639,-1.09488c6.50165,-0.33109 15.11071,3.8585 20.71542,0.23141c3.32188,-0.01135 7.54318,2.09948 10.77661,-0.98683c5.81938,-0.01579 9.20586,2.39503 12.79558,7.03116c1.84306,2.05014 0.44225,8.18723 3.75818,10.74708c-2.60732,0.83731 1.67162,3.61524 -2.15861,5.8593c-3.47841,6.43708 -15.18326,16.57282 -12.68725,27.30756c1.1603,6.76373 -7.9909,12.16613 -5.82286,19.62854c-1.60603,6.45831 -7.64356,11.97222 -11.64671,14.72498c-1.1265,4.79748 -0.75382,6.82393 -4.33211,10.11501c2.44781,5.63727 -6.29046,9.45976 -10.26479,12.75182c-0.72351,5.06589 -5.01636,0.83584 -8.40085,3.36164c-6.55084,-0.55756 -13.31685,2.57266 -17.90438,8.37275c-5.8964,0.02369 -3.98327,2.4281 0.85371,0.94046c5.9431,-2.48485 11.54832,-6.88363 17.23701,-8.43444c5.80249,-0.34342 1.87188,7.47474 2.53129,7.80188c1.56777,4.41852 12.9854,2.63483 11.08718,8.92785c-4.30329,5.19615 -10.91773,8.24299 -17.01936,5.0575c-4.77785,3.56739 -10.4571,7.72145 -11.61541,13.27583c-6.49916,-0.99276 -11.02209,6.64284 -17.14359,1.77333c-3.4153,-4.32479 -13.24976,0.74901 -5.69912,2.1128c5.44768,0.00149 11.18954,2.19866 15.9172,2.51296c4.44988,0.55855 9.28388,0.55805 13.23038,3.28467c4.34751,-0.46085 9.67346,-3.25358 9.51892,-7.64793c2.80459,-4.40817 14.59838,-3.48253 14.1934,3.28417c6.42562,-2.56329 11.90362,8.63082 19.25548,6.78445c3.23617,1.87301 4.44218,4.52289 6.03162,9.58671c-1.37929,2.1894 -4.41067,4.52006 -4.95638,5.60375c-0.5325,1.05754 -1.03051,1.72332 -1.76252,2.45012c-0.59376,0.58961 -1.63386,1.27234 -2.29123,1.9251c-0.6199,0.61552 -0.71297,1.93299 -1.23374,2.45013c-0.76833,0.76291 -1.38112,1.59732 -2.29128,2.27512c-0.90895,0.67691 -1.12551,1.14519 -1.41,2.2751c-0.19966,0.79307 0.02808,1.86162 0.17626,2.45014c0.21899,0.86989 0.30138,1.82354 0.70497,2.62513c0.4994,0.99176 1.86816,2.03001 2.46753,2.62513c0.41786,0.41494 0.66681,2.09648 1.23375,2.80014c0.45771,0.56813 0.17889,2.11051 0.35251,2.80015c0.26292,1.04432 0,1.95211 0,2.97515c0,1.32033 -1.35122,1.80839 -2.29128,2.27511c-0.88157,0.43769 -1.3218,1.69168 -1.76251,2.27512c-0.66268,0.87738 -1.27443,0.72024 -2.29123,1.22506c-0.82423,0.4092 -1.48831,1.78895 -2.46753,2.27512c-0.1051,0.05218 -0.23499,0 -0.35246,0c-1.05724,0 -2.05907,1.34452 -2.64379,1.92509c-0.83293,0.82706 -1.84868,1.29021 -2.99626,1.57508c-0.66875,0.16601 -1.68832,1.27114 -2.29123,1.75009c-0.81463,0.64712 -1.85941,1.73039 -2.64378,1.9251c-0.80442,0.19969 -0.8546,1.29414 -1.05749,2.1001c-0.24493,0.97288 -0.44921,1.59215 -0.88128,2.45014c-0.45036,0.89437 -0.95035,1.36232 -1.41,2.27511c-0.59908,1.18979 -1.50968,2.19909 -2.46749,3.15016c-0.93633,0.92973 -1.71028,1.37414 -2.81999,1.9251c-1.2571,0.62411 -1.57289,1.26549 -2.82005,1.57508c-0.74781,0.18564 -1.70606,2.33529 -2.29122,2.80013c-0.66761,0.53033 -1.36747,0.64573 -2.29128,0.87506c-1.14733,0.28481 -1.4028,1.22506 -2.82,1.22506c-0.49751,0 -1.61835,3.71584 -2.02548,4.01904z" id="path26828"/>
    <path d="m367.65784,137.26219c-0.6624,3.97692 -4.94382,4.87099 -1.53349,-0.10856c0.29368,-0.37598 2.22122,-0.61824 1.53349,0.10856z" id="line475"/>
    <path d="m328.66237,153.58436c-0.32846,3.70752 -4.81113,4.0386 -2.19437,-0.05379c0.89047,0.09474 3.2856,-2.45967 2.19437,0.05379z" id="line476"/>
    <path d="m327.40766,163.7413c-4.59796,-2.0531 -5.30805,8.3402 -6.10163,2.41379c-2.42843,5.26721 -3.27269,-1.59422 -6.58414,4.17972c-3.29305,5.75075 -1.79237,-3.78696 2.81653,-4.55472c-2.67242,-4.24682 7.26093,-5.90568 1.49075,-1.63616c1.13942,4.45011 10.6156,-9.36748 8.37849,-0.40263z" id="line477"/>
    <path d="m320.29828,179.42598c0.35778,2.87809 1.65374,3.52545 -2.84335,4.02972c-0.50088,-6.06308 -2.42395,0.44457 -4.30627,-0.4268c1.26962,-3.61772 5.29414,-3.95028 1.07633,-7.156c3.57728,-0.45789 4.47323,0.72137 3.74128,3.36608c0.46759,0.55953 3.4794,-1.33815 2.33201,0.187z" id="line478"/>
    <path d="m307.25425,182.97561c-0.61966,4.61096 -0.26436,6.11933 -5.3011,4.71754c-1.70939,-2.32448 0.64947,-4.4062 3.34176,-2.8776c0.47753,-0.85459 0.62016,-3.32216 1.95934,-1.83994z" id="line479"/>
    <path d="m313.02444,194.82349c-0.06709,4.82757 -5.51826,2.67924 -6.91508,7.61882c-3.07492,-2.29586 -7.32504,-2.16856 -6.33568,-7.83148c-5.37266,1.84537 -7.0736,4.15702 -12.20276,4.19699c-4.64368,-2.62152 2.04928,-12.14739 -2.44384,-10.15597c-1.71237,0.85707 0.51928,3.47661 -1.50316,5.64023c-3.55344,3.72923 -5.29066,-7.08149 -3.49332,-9.66304c-2.14667,-7.8078 8.11613,-10.23392 12.67135,-5.39006c2.56309,0.4268 1.22838,3.85603 4.95574,4.88332c-1.01073,2.77053 -3.9962,2.22383 -6.25219,6.12674c0.07453,2.13353 4.47124,1.62432 5.45166,-0.85164c2.901,3.28171 4.27049,-1.43781 6.01815,2.3684c0.00199,3.21459 3.99768,-1.35097 5.53514,0.82449c-3.10771,1.42104 -3.4466,4.81475 1.13248,2.41922c0.14658,-1.65886 3.0431,-1.42597 3.38151,-0.18602z" id="line480"/>
    <path d="m304.23101,205.25182c-5.67925,2.13303 -3.40685,-2.67086 -0.99383,-1.64308c-1.37,2.28156 1.84505,0.2102 0.99383,1.64308z" id="line481"/>
    <path d="m303.07121,208.11214c-3.09877,1.60064 0.56997,12.13357 -4.70579,6.00339c0.99632,-3.63055 -2.92932,-4.41113 0.482,-6.05618c-9.68338,0.35871 7.01198,-4.55866 4.22379,0.05279z" id="line482"/>
    <path d="m295.34219,215.17193c-2.42048,3.38532 -0.41791,-2.10294 0,0z" id="line483"/>
    <path d="m292.30504,220.899c-2.34097,5.57657 -2.09103,-3.30243 0,0z" id="line484"/>
    <path d="m289.80704,202.17735c1.62989,2.59931 -2.87118,-0.81068 0,0z" id="line485"/>
    <path d="m289.80704,204.88126c1.14738,3.97841 -2.87317,-0.65821 0,0z" id="line486"/>
    <path d="m293.64472,207.2383c-3.68911,4.98399 -2.95615,-4.76737 -0.1943,-1.4832c-2.88608,0.86348 -0.40498,0.51315 0.1943,1.4832z" id="line487"/>
    <path d="m287.86012,204.90741c0.66637,2.8475 1.15334,3.26888 -2.67787,5.48037c1.54242,-0.76332 9.12437,-1.43091 3.34175,1.26955c-6.12448,2.42859 -8.38645,-4.10571 -10.1177,-8.57851c-6.32623,-0.12484 2.66397,-9.44594 4.65163,-3.39519c2.74795,1.43929 3.65383,2.6072 4.80219,5.22378z" id="line488"/>
    <path d="m284.27189,197.48004c-1.72628,2.01806 -3.65332,-2.49471 0,0z" id="line489"/>
    <path d="m299.24844,182.76196c-0.55108,2.27415 -3.06299,-2.06544 0,0z" id="line490"/>
    <path d="m299.42783,174.24167c0.21864,3.05029 -3.28859,7.00254 -6.44599,2.64668c-3.78849,-2.55491 1.71883,-8.0555 3.22994,-3.3419c1.18863,-1.13239 4.55772,-1.32186 3.21605,0.69522z" id="line491"/>
    <path d="m301.99489,175.8729c-0.69817,6.42476 -3.75917,-2.84947 -0.02683,-0.6148l0.15107,0.26694l-0.12424,0.34786z" id="line492"/>
    <path d="m299.86959,179.21233c-3.10175,3.24421 -4.6561,-1.69093 0,0z" id="line493"/>
    <path d="m299.86959,157.29632c-4.19149,4.16787 3.61009,3.8738 5.1068,7.49152c1.69498,2.25688 -3.15939,5.41917 -1.64181,0.75097c-3.99818,-4.65586 -4.01807,-0.21957 -6.18461,-0.96561c-1.15484,-3.50177 -5.70807,-6.64778 0.49691,-5.79861c-0.13566,-1.65393 2.28482,-3.91772 2.22271,-1.47827z" id="line494"/>
    <path d="m303.96914,155.14503c0.17442,4.50192 -2.99591,5.8741 -1.46243,0.61874c-0.15603,-1.39538 1.11211,-3.39519 1.46243,-0.61874z" id="line495"/>
    <path d="m306.61869,169.50488c0.61071,4.26114 -1.55634,-0.3666 0,0z" id="line496"/>
    <path d="m311.09094,169.71903c-3.47792,2.38023 1.06787,9.53277 -3.14647,6.66159c-3.09579,-3.89946 -0.78563,-3.03302 0.08347,-5.59039c-0.93519,-5.72263 1.18317,-4.42544 3.063,-1.0712z" id="line497"/>
    <path d="m311.27033,167.06692c1.57124,3.30934 -3.07294,-1.67662 0,0z" id="line498"/>
    <path d="m162.8734,453.82741c0.95507,5.23364 -4.20242,10.89311 -6.19903,15.80555c-1.42316,-2.28994 -10.85313,3.28812 -7.46616,-3.25801c2.67987,-5.68069 9.9731,-10.09133 13.66519,-12.54754z" id="line524"/>
    <path d="m168.51885,446.90824c0.65494,4.8108 -2.8021,0.29161 0,0z" id="line525"/>
    <path d="m166.0616,443.25796c2.15413,2.30819 -1.70243,10.17273 -1.03557,2.76263c0.54661,-0.60345 -0.79109,-4.50636 1.03557,-2.76263z" id="line526"/>
    <path d="m168.42196,438.68992c-0.5332,9.49972 -6.52203,-2.13007 0,0z" id="line527"/>
    <path d="m172.83854,430.17901c-2.64955,6.61521 -7.84978,0.6666 0,0z" id="line528"/>
    <path d="m163.60386,449.69258c1.04203,6.68775 -7.27535,0.92467 0,0z" id="line529"/>
    <path d="m163.0652,447.54869c-0.02634,2.95754 -1.73374,-0.87136 0,0z" id="line530"/>
    <path d="m160.44397,444.86156c-1.83162,2.43697 -1.54292,-1.26759 0,0z" id="line531"/>
    <path d="m141.13333,455.918c-1.4495,4.84731 -4.49113,10.13919 -6.52898,6.50864c0.77271,-3.8215 4.84543,-6.76966 6.52898,-6.50864z" id="line532"/>
    <path d="m137.29465,464.78171c-3.90923,3.80522 -1.30439,-2.99848 0,0z" id="line533"/>
    <path d="m165.31623,427.10601c-1.25074,1.35098 0.13864,6.90041 -3.20312,4.28631c-0.86563,-1.62136 -3.75768,4.18662 0.92526,1.41166c0.49841,4.73185 -12.63359,9.07785 -7.97898,2.69651c-5.58433,3.83778 -12.08896,6.12278 -19.4612,6.10354c-2.13277,5.54796 -9.50451,-5.79319 -2.84485,-5.2376c1.98468,2.82678 3.30399,2.33731 3.67172,0.39523c2.9944,2.19421 14.54919,-4.71952 9.05628,-3.63598c-3.01081,2.135 -11.60894,2.58698 -5.81192,-2.10441c0.17292,-4.97117 9.50152,-4.14124 7.70219,-8.23214c-5.52173,4.43186 -7.03235,-1.45114 -11.99455,-2.78187c-6.38686,1.22909 -2.5293,-3.71838 -2.07015,-4.74863c-3.97086,-2.0457 3.32536,-3.81558 4.37484,-1.79209c-2.40954,-6.40501 8.56136,-5.43446 9.55123,0.82154c1.87635,4.22117 4.11644,7.22212 8.55937,6.81258c2.69576,0.01727 7.21869,4.18219 9.52388,6.00535z" id="line534"/>
    <path d="m176.0685,417.94478c-0.95358,3.01378 -10.70208,10.95332 -7.08105,6.10996c0.60673,-1.45557 7.2664,-8.10336 7.08105,-6.10996z" id="line535"/>
    <path d="m130.33784,440.59204c1.08874,5.06737 1.40477,0.32023 0,0z" id="line536"/>
    <path d="m128.9589,437.03353c-4.53635,7.60944 -3.2861,-3.48351 0,0z" id="line537"/>
    <path d="m140.60809,425.64255c-4.94232,2.13204 -6.73668,-5.17001 -0.98041,-1.28979c0.37069,0.35033 1.74616,0.55361 0.98041,1.28979z" id="line538"/>
    <path d="m134.82449,423.33534c-4.09856,2.40342 -0.84228,-2.5554 0,0z" id="line539"/>
    <path d="m124.27894,426.3126c-2.06419,2.59241 0.18436,-2.54453 0,0z" id="line540"/>
    <path d="m127.12229,423.23567c-0.84972,3.91475 -1.45993,-1.76149 0,0z" id="line541"/>
    <path d="m112.18799,419.13786c-1.79883,2.0605 -4.37882,0.99571 -4.95673,4.22215c-5.13811,-1.5508 -2.99691,5.98809 -7.77127,3.15095c-2.37128,-3.93302 1.94343,-7.18363 6.39233,-7.05041c2.68483,0.15838 5.10183,-3.33351 6.33567,-0.32269z" id="line542"/>
    <path d="m125.54807,406.2395c-1.23683,6.37887 -7.50294,9.33047 -11.82859,9.666c-1.43856,0.44506 3.28511,-5.44928 5.9774,-7.02228c0.76376,-1.53304 6.37046,-4.85718 5.85119,-2.64372z" id="line543"/>
    <path d="m156.82693,396.39636c-5.26682,0.85163 -0.78315,-3.62265 0,0z" id="line544"/>
    <path d="m137.28224,392.16483c-3.65035,2.74881 -2.76683,-3.01625 0,0z" id="line545"/>
    <path d="m143.06434,383.98845c1.88878,6.64433 -8.44955,4.1891 -4.00215,0.45197c1.8853,0.4648 1.29396,-5.98413 4.00215,-0.45197z" id="line546"/>
    <path d="m136.03995,377.45317c-0.03976,7.31932 -7.42243,4.85965 -9.12537,0.07549c-4.36739,-1.08156 5.57291,-8.77538 7.45374,-4.00308c2.78621,0.75443 1.25621,2.76955 1.67163,3.92759z" id="line547"/>
    <path d="m123.90626,371.81245c-3.65731,2.27267 -8.8774,0.81907 -2.47017,-0.78157c0.68027,-0.38979 2.6739,-0.40657 2.47017,0.78157z" id="line548"/>
    <path d="m125.0104,373.3746c-3.00981,0.78107 -1.69547,-2.11971 0,0z" id="line549"/>
    <path d="m141.17408,324.78408c1.10862,5.1256 -0.44425,14.82959 -1.39485,15.83418c3.45606,0.27138 1.08775,5.00421 3.56189,7.03905c3.30897,0.68289 1.82568,4.49551 2.47117,4.48959c4.58355,-0.67746 9.85284,5.9047 14.38322,0.27927c1.98568,0.1648 4.3187,0.09276 5.31353,2.05261c1.65721,5.97921 -7.1705,5.80503 -6.79185,9.15778c-0.99831,3.53384 -5.37762,6.67492 -7.42541,9.88902c-4.32118,4.35932 -6.01566,-0.67893 -3.42326,-4.30997c-2.05474,-5.42165 8.93108,-7.25468 7.73052,-8.73838c-3.76711,2.43006 -7.19086,0.17762 -8.62695,-2.70687c0.84078,3.77116 -4.78579,11.50396 -3.86601,3.41491c-1.74765,-3.27183 -8.97181,3.10901 -10.44864,0.53092c5.45216,-2.95062 -7.8627,-1.56363 -2.41551,-5.33825c-1.39335,0.01875 -5.65689,-3.97151 -6.0728,-6.31029c1.25123,-6.92853 7.2659,0.84916 7.45373,-0.48207c-2.97951,-3.03203 -2.76583,-5.79516 -6.1707,-4.46787c-0.68027,-2.49619 -1.79585,-5.1932 -3.34077,-2.3378c-0.44026,-6.14549 -2.43537,1.33765 -2.53873,4.06475c-4.34106,-2.05606 -8.33577,-3.38236 -9.45582,-8.1601c-3.92712,-1.93221 1.14142,-3.0266 1.40826,-3.15786c-3.26374,-5.42064 3.32338,-4.41458 3.97533,0.15297c4.4146,3.93054 3.65383,0.69966 1.58765,-3.13516c1.8684,-1.84982 4.13831,-0.68585 0.49691,-4.46492c-3.33679,-3.77413 0.85569,-9.24807 1.9176,-2.14586c1.79635,3.43467 7.47858,4.88629 6.98415,5.31014c-0.42585,6.32311 1.73622,-6.25256 3.24437,0.38289c6.68749,5.00865 -5.36272,-5.11277 0.16497,-7.73724c-4.42901,-2.62497 -1.45994,-6.56243 1.03557,-9.67785c-1.3367,-3.32265 6.62537,1.86363 6.37742,5.12412c2.56309,0.31183 3.11963,3.72578 3.86501,5.44829z" id="line550"/>
    <path d="m157.19961,345.82872c1.4828,2.94174 -2.7544,-1.77728 0,0z" id="line551"/>
    <path d="m156.56456,351.94411c-1.13198,2.40343 -1.81425,-1.31545 0,0z" id="line552"/>
    <path d="m152.52065,349.68722c-3.89681,8.70236 -8.77603,-8.27949 0,0z" id="line553"/>
    <path d="m150.65721,324.55414c-1.25421,12.99064 -4.70678,0.05725 0,0z" id="line554"/>
    <path d="m149.33244,332.46803c-3.09777,4.39533 -1.52901,9.18246 -0.91134,13.23388c-5.4298,5.01211 -4.59697,-7.79793 -2.23612,-10.14954c2.44184,1.15952 1.73522,-5.97279 3.14746,-3.08434z" id="line555"/>
    <path d="m130.22802,294.66898c2.47563,5.28793 -3.42971,-1.49455 0,0z" id="line556"/>
    <path d="m127.03882,309.38805c1.43508,2.30079 -2.89653,-0.90542 0,0z" id="line557"/>
    <path d="m167.41321,300.38963c2.23812,4.11805 -3.37852,-2.16263 0,0z" id="line558"/>
    <path d="m175.03293,295.08148c1.9643,3.93547 -2.16954,-1.21232 0,0z" id="line559"/>
    <path d="m187.05629,290.77249c-1.49323,-1.78617 2.05028,-0.66464 0,0z" id="line560"/>
    <path d="m178.22113,284.72519c-4.17607,0.22154 0.36872,-4.2261 0,0z" id="line561"/>
    <path d="m176.85462,287.77597c-2.74149,-0.54966 1.20948,-1.25623 0,0z" id="line562"/>
    <path d="m173.33546,289.50737c-3.465,-0.17369 0.89842,-2.43353 0,0z" id="line563"/>
    <path d="m190.07953,250.19601c-3.41332,1.498 1.17521,-3.17365 0,0z" id="line564"/>
    <path d="m140.35964,247.08453c-4.20342,2.62694 0.54412,6.85797 -0.6619,7.49942c-3.46847,3.10308 -8.07935,7.99529 -8.15836,10.71105c4.58554,4.3164 11.06035,-9.24709 10.21509,-0.33848c-2.01598,4.13037 -5.7026,3.73713 -8.98622,2.54898c-1.97276,0.51365 -4.74107,-2.47793 -2.71962,2.13155c3.50525,4.92083 -6.23827,6.24664 -7.67387,7.81175c5.48546,-0.20675 7.58243,-3.75687 7.97749,2.90227c1.5131,7.08643 -8.67466,2.62793 -8.46199,4.11557c6.66265,1.58732 1.79139,8.15763 -0.95109,7.3129c-0.81444,4.80982 -5.07847,-5.21638 -3.50673,1.21282c-4.84394,-0.83634 -5.35179,-8.31207 -4.27895,-10.98391c-4.3485,3.55111 -0.00148,10.67553 1.2423,13.25361c-0.75333,2.35655 -10.39598,-1.7753 -5.07997,3.27333c2.67787,2.63927 -1.24726,4.00702 -1.97275,4.29912c-3.13008,-0.5097 -4.40169,5.01606 -6.92999,7.63165c-2.24905,-1.28189 -8.19216,-6.90535 -9.1522,-10.10267c3.85507,0.63848 2.71466,5.00174 5.12171,0.18058c1.1439,-1.76987 5.57987,-3.21509 5.38259,-3.81261c-4.64964,-3.29404 3.26722,-1.96428 5.19029,-2.32053c-1.5151,-3.29651 -6.79184,-4.89369 -10.80792,-4.92971c-4.02105,-2.52284 -4.35497,-5.44385 -0.27529,-6.36012c4.37236,-1.9031 -1.78592,-1.36873 -0.07007,-2.84799c-2.49998,-2.1508 -4.58404,-6.79927 -1.95934,-10.24626c-0.06211,-2.35063 7.03634,-0.27089 2.04283,-3.43121c0.09937,-5.5149 4.77337,-0.77762 5.65936,-2.15967c3.50724,2.57957 -2.48159,3.30637 3.32586,5.07082c0.78165,-4.90652 8.36707,1.94504 8.31093,-1.27351c-3.71644,-2.96344 -8.01825,-10.54525 -1.50567,-12.05708c2.30918,-3.6947 7.77575,-2.78484 10.20169,-4.56902c2.31711,-6.51802 11.66559,-9.03641 13.81624,-13.98043c3.6891,2.67333 3.96191,5.46803 4.66555,9.45778z" id="line565"/>
    <path d="m109.60601,265.42477c-0.38511,5.18234 -8.60161,-7.53889 -2.5114,-2.00376c0.43131,0.74654 1.64081,0.94292 2.5114,2.00376z" id="line566"/>
    <path d="m106.25183,266.54334c-2.28829,-0.90788 0.33294,-1.78518 0,0z" id="line567"/>
    <path d="m92.57224,284.44098c-7.60331,1.02187 0.68226,-6.43956 0,0z" id="line568"/>
    <path d="m99.43316,294.95269c-2.90249,2.55738 -6.82216,1.36874 -1.79486,-1.47037c1.35012,-1.62678 1.80131,0.26151 1.79486,1.47037z" id="line569"/>
    <path d="m87.67315,306.09993c0.08944,4.84435 -6.35158,-1.41067 0,0z" id="line570"/>
    <path d="m90.69639,310.6206c-3.94353,6.70896 -5.14209,-2.95458 0,0z" id="line571"/>
    <path d="m84.16741,312.33966c-0.23703,3.7243 -2.31662,-1.81873 0,0z" id="line572"/>
    <path d="m64.88359,313.54507c-0.38511,1.67366 -1.52005,-1.16643 0,0z" id="line573"/>
    <path d="m21.61019,302.29422c-2.77577,4.1437 -5.57689,-3.86048 0,0z" id="line574"/>
    <path d="m94.78103,319.69401c-0.35181,4.10225 -8.23737,-3.08484 -5.20271,1.38205c-0.05565,3.59848 5.58086,0.33602 2.09699,5.08761c-4.82009,0.84324 -8.82473,-1.85574 -7.83985,2.2475c-0.06012,6.76521 -5.43376,-8.00516 -9.38624,-2.9373c-5.53961,-2.15178 -1.287,-5.7394 0,-8.36634c2.91143,0.44308 5.03227,-1.3194 3.09132,1.89521c1.95785,1.20836 5.24892,-8.41866 4.2521,-1.94604c2.94225,6.67246 3.60613,-6.52689 7.88158,-0.99966c-3.90426,4.66524 6.10511,-0.19983 5.10681,3.63697z" id="line575"/>
    <path d="m77.09879,325.88291c2.1253,3.42727 -2.42844,-0.62022 0,0z" id="line576"/>
    <path d="m66.43,329.99404c-4.62131,0.11003 2.41004,-1.36774 0,0z" id="line577"/>
    <path d="m68.6388,329.22826c-0.4035,3.25753 -2.13973,-0.56644 0,0z" id="line578"/>
    <path d="m80.90913,329.20261c-0.00745,8.91058 -5.49539,-6.33348 0,0z" id="line579"/>
    <path d="m87.28556,337.38589c-1.03806,8.70138 -16.31623,-3.25604 -6.08722,-4.7649c2.22468,2.01116 4.96915,1.90014 6.08722,4.7649z" id="line580"/>
    <path d="m85.71232,346.28612c-3.43121,0.09177 -11.14632,-5.98217 -4.51398,-4.90504c3.49083,1.45903 2.77229,2.5697 4.51398,4.90504z" id="line581"/>
    <path d="m87.97577,350.37209c-2.15215,2.94667 -3.46996,7.78411 -7.37025,5.7019c1.40726,0.05575 7.93624,6.27279 2.94074,7.28478c-6.46438,0.27434 2.47017,0.92367 3.11815,3.28318c0.02137,2.63928 -8.90175,1.89373 -9.17804,-2.29783c-1.78144,-7.03363 -0.89892,-11.3367 0.64799,-18.28646c-1.93599,-6.04038 0.02186,-1.78862 3.05155,-0.35575c2.95218,1.23009 5.97293,3.27677 6.78986,4.67018z" id="line582"/>
    <path d="m84.636,369.69471c-1.7566,7.03117 -4.08117,-3.27331 0,0z" id="line583"/>
    <path d="m79.26733,372.99665c-3.11815,1.0707 -0.3881,-2.69701 0,0z" id="line584"/>
    <path d="m76.78275,373.3746c-0.46363,3.56541 2.44134,4.87938 -0.02833,7.82556c-2.97653,2.08567 -9.0558,-0.09128 -4.16863,-3.44502c-1.37148,-1.48864 3.86651,-4.40422 3.18821,-5.13645c0.32101,0.27928 0.80153,0.33848 1.00875,0.75591z" id="line585"/>
    <path d="m73.52447,383.23501c-0.38611,2.57019 -5.34731,1.43337 -2.64956,-1.15558c0.32449,0.71891 4.05384,0.54226 2.64956,1.15558z" id="line586"/>
    <path d="m73.26259,387.47739c-4.63473,1.45952 0.29318,-3.21855 0,0z" id="line587"/>
    <path d="m70.14196,391.06254c-4.97412,0.53092 0.45468,-2.19471 0,0z" id="line588"/>
    <path d="m67.11972,393.34212c-1.64181,7.58478 -3.99819,-1.20936 0,0z" id="line589"/>
    <path d="m81.29573,375.84217c1.91163,2.27563 -2.94621,-0.66512 0,0z" id="line590"/>
    <path d="m88.50101,341.48321c-3.3994,2.96889 -0.04473,-5.08463 0,0z" id="line591"/>
    <path d="m87.60308,333.02904c-0.24001,3.23384 -4.62032,-3.04388 0,0z" id="line592"/>
    <path d="m89.77014,332.23859c-0.2584,5.81243 -3.20312,-2.51098 0,0z" id="line593"/>
    <path d="m87.85154,327.72187c-0.26038,7.44316 -6.11753,-0.54029 0,0z" id="line594"/>
    <path d="m91.26088,327.46677c0.25293,7.00601 -7.19435,0.99028 0,0z" id="line595"/>
    <path d="m407.09257,9.65668c-2.07611,-2.01412 -4.93884,9.8451 -4.0439,3.65423c2.38619,-3.80473 -0.60027,-5.11474 -1.79486,-1.01151c-1.52454,2.58994 -0.90488,9.00186 -2.36035,10.07357c-1.52752,5.23661 5.07549,2.89288 6.66662,3.02463c-2.13077,-3.21065 1.65523,-6.81999 0.92625,-8.80105c1.07533,-2.37826 2.55067,-3.33647 1.69747,-6.32113c-0.29815,-0.11744 -1.25421,-0.04737 -1.09123,-0.61874z" id="line597"/>
    <path d="m398.14809,31.6615c2.24009,1.48321 -4.22975,2.96987 -0.10932,0.08388l0.10932,-0.08388z" id="line598"/>
    <path d="m408.68072,34.87265c0.41293,-2.52086 -2.68434,-3.60144 -5.23253,-3.18352c-7.10142,-4.32922 1.29595,10.92915 0.41442,3.18352c2.49751,-0.61727 3.74477,4.46639 4.81811,0z" id="line599"/>
    <path d="m409.77144,51.60238c-1.94045,-2.45179 -3.00285,4.15455 0,0z" id="line600"/>
    <path d="m401.43369,56.34705c1.7566,-4.91145 -10.20764,6.16621 -2.83042,3.85111c1.30638,-1.04259 1.57373,-2.75573 2.83042,-3.85111z" id="line601"/>
    <path d="m396.58877,79.33279c0.35281,-3.54568 -2.26445,2.32399 0,0z" id="line602"/>
    <path d="m394.84956,80.13114c1.98269,-5.09846 -5.9615,-6.65913 -3.33977,-0.85361c-0.87407,3.25999 3.84861,5.96736 3.33977,0.85361z" id="line603"/>
    <path d="m387.42265,47.01806c-0.31851,-6.52936 -3.83171,3.06953 -4.1547,-1.33518c-2.13674,2.9072 4.94331,4.39781 -1.7248,4.72543c-2.19189,6.09368 -3.35716,1.08256 -0.38709,-2.0003c1.65473,-3.95621 -0.42785,-2.63287 -0.57841,-4.06031c-0.15504,-4.2784 0.5779,-3.59551 1.11805,-8.27556c2.0468,-2.48188 -0.7553,-9.12176 -0.67629,-2.9304c-0.15107,1.28388 -6.7685,-2.20901 -5.09339,3.23731c-5.76969,2.43105 0.99135,6.02953 1.1588,6.99465c-5.06804,1.45162 -6.61394,-10.33952 -7.60628,-1.19752c-4.31423,1.1388 -2.3052,5.93183 0.75978,3.28417c3.79196,-1.94751 1.10613,5.54944 4.0444,0.5842c0.98488,-1.24537 0.3369,7.28379 3.28511,6.41834c-1.75362,4.98645 3.27964,1.11068 2.73304,4.43827c5.86012,1.66281 1.7064,0.49588 0.55256,2.38319c-2.11089,-0.14111 -0.64003,4.46097 -2.00256,5.64615c-2.1601,-6.57673 -5.17936,-0.92861 -5.1893,0.58026c-0.58835,-8.22671 -4.41509,2.87069 -6.41915,-2.71033c-9.14376,-0.36118 -2.24408,13.34687 2.59637,8.62144c1.19211,4.1664 2.71118,-5.81539 3.31244,0.5245c-2.35289,1.17038 -2.75439,4.25422 1.44901,6.45041c1.03011,-3.98531 2.47018,-2.09454 3.40934,-5.34714c4.81015,2.35409 -5.51824,-8.47736 1.47733,-3.80867c0.92377,6.74548 1.28503,1.25525 3.97533,0.16579c-1.28652,2.59191 -3.63494,10.565 -0.16597,5.3802c-0.35728,5.54796 0.95209,10.19642 -1.40727,16.44454c-2.50147,4.46294 -0.9824,6.37689 -3.16237,10.73474c-1.1603,2.82726 4.29982,2.80111 3.38251,4.50784c3.52114,3.32512 0.04024,-6.07444 2.49799,-8.11866c-0.32747,-5.22674 0.64698,-3.11295 2.54024,-4.08054c-3.40288,-4.71113 3.93557,-4.35143 -0.1933,-8.53411c-0.60724,-4.35192 1.50118,-5.13299 3.6717,-7.39925c-2.45177,-2.25342 0.28126,-5.92542 -3.43666,-2.5623c3.43368,-5.72263 -1.13943,-1.57893 0.56549,-4.35735c-2.55912,-0.9444 -0.03925,-2.42563 -0.15106,-4.80537c-0.33244,4.77576 6.61245,1.18864 3.33926,-0.77367c-3.35566,0.0824 6.07779,-5.53464 -0.88301,-5.25685c-5.04072,-2.31263 6.99906,-0.40065 3.40934,-5.98611c-5.83578,3.51805 0.45219,-2.01214 1.57324,-5.38611c-3.45108,0.81463 -4.17659,4.50191 -5.65889,5.4695c-0.3528,-3.39173 -3.63692,-0.86841 -3.24385,-2.22037c3.2538,-1.44916 4.1239,-1.84685 1.28302,-5.44483z" id="line604"/>
    <path d="m346.20698,80.18591c-2.95864,-8.98657 -5.7841,6.0616 0,0z" id="line605"/>
    <path d="m369.23008,73.43599c-4.73562,-1.20591 1.53149,3.09963 0,0z" id="line606"/>
    <path d="m362.21909,59.25672c-3.12311,2.90276 6.59358,1.77333 0.31703,0.11102l-0.31703,-0.11102z" id="line607"/>
    <path d="m378.83844,60.36444c-1.94741,-3.22496 -0.93718,4.08794 0,0z" id="line608"/>
    <path d="m378.18897,56.51333c-7.51585,-4.43481 -1.9325,7.65386 0,0z" id="line609"/>
    <path d="m397.05735,21.02791c-4.01606,-0.46282 -6.75506,-1.2809 -5.72695,4.53745c-0.96302,3.58269 0.70413,10.98934 -1.39484,3.94436c-3.76414,0.37648 -2.00108,12.02798 0.62115,15.47793c2.23711,-1.8799 0.46312,-2.25934 5.06506,-1.25228c-0.7255,-5.05751 2.33947,-7.69481 -2.04282,-10.98441c5.49986,1.98699 -2.68136,-9.67784 2.92733,-2.87808c2.39364,-0.46184 -0.18038,-6.84268 0.55107,-8.84497z" id="line610"/>
    <path d="m86.4577,323.0966c-3.81731,3.0947 -1.67859,-0.33257 -2.02942,-1.79061c0.2912,1.25574 2.32508,0.43421 2.02942,1.79061z" id="line2130"/>
    <path d="m240.78332,257.3974c0.71705,-0.01431 1.93996,0.59259 3.21405,2.45178l-0.51231,-0.04638c-3.69259,-0.61775 -3.89732,-2.38122 -2.70174,-2.4054z" id="path26824"/>
    <path d="m232.44409,263.34946c-5.84026,7.2389 -3.16238,1.04605 0,0z" id="path26822"/>
    <path d="m212.72299,269.68639c5.89193,3.30638 11.81715,7.4185 15.40439,13.18356c-0.68525,0.32072 -1.09769,-0.69226 -1.47534,-1.0638c-3.35866,-4.14617 -14.09304,-11.80397 -13.92905,-12.11976z" id="path26820"/>
    <path d="m242.21195,289.80836c0.8388,-0.14112 8.36409,3.27084 3.24536,2.28253c-2.87714,-1.62876 -3.57382,-2.2258 -3.24536,-2.28253z" id="path26818"/>
    <path d="m228.63969,293.81784c0.23505,0.00395 0.87706,0.62713 2.04978,2.25096c0.48449,3.70012 10.04963,0.61529 5.21762,2.69849c-3.76612,2.78335 -8.10619,-4.96623 -7.2674,-4.94945z" id="path26816"/>
    <path d="m174.78645,305.39731c0.34834,-0.11201 0.97893,0.62071 1.64628,2.83714c0.37517,0.59851 3.18573,2.8845 0.94713,2.51345c-2.92236,-1.85376 -3.25828,-5.13596 -2.59341,-5.35059z" id="path26814"/>
    <path d="m167.98517,307.7874c0.07503,-0.01282 2.32059,2.49916 4.44093,3.99371c1.49274,1.14225 12.13916,7.85073 7.54716,6.32164c-3.37505,-3.91427 -9.86726,-1.69242 -9.98503,-7.70962c-1.47881,-1.89865 -2.04232,-2.59881 -2.00306,-2.60573z" id="path26812"/>
    <path d="m196.07631,317.4396c0.57195,0.01776 1.42367,0.09621 2.62421,0.27779c0.94862,0.74801 5.55353,-1.30213 4.20838,0.5245c-3.14051,1.49948 -9.58501,-0.62664 -7.3141,-0.78651c0.13118,-0.00937 0.29069,-0.01727 0.48151,-0.01578z" id="path26810"/>
    <path d="m267.69429,317.54765c0.67829,-0.02072 1.127,0.51266 0.55903,2.1281c-4.6561,0.59703 -2.05127,-2.08221 -0.55903,-2.1281z" id="path26808"/>
    <path d="m229.5252,330.99321c1.07582,1.06825 7.22317,-0.18355 5.32594,1.48025c-3.87544,2.15326 -14.12583,-0.86249 -5.32594,-1.48025z" id="path26806"/>
    <path d="m194.88073,337.31534c1.6592,-0.17467 4.85486,2.59141 2.9969,2.35902c-2.65701,-1.95393 -10.76419,-0.28372 -3.58724,-2.08172c0.15554,-0.16234 0.35332,-0.25263 0.59034,-0.2773z" id="path26804"/>
    <path d="m230.76749,341.50937c0.74289,-0.02024 0.31554,1.00656 0.37268,1.37218c-6.02411,6.4593 -10.44914,16.93993 -17.25241,20.90847c6.06336,-7.26357 11.15029,-15.10294 16.87973,-22.28065z" id="path26802"/>
    <path d="m203.59216,369.32564c0.57245,0.01184 1.20899,0.08091 1.87883,0.21562c0.15902,0.57581 -0.5456,0.52697 -0.82288,0.7865c-6.33469,1.38896 -5.06308,-1.0865 -1.05595,-1.00212z" id="path26800"/>
    <path d="m184.47631,369.52596c1.47236,-0.09375 2.82049,0.51217 4.02203,1.71166c-2.38867,-0.80377 -9.39021,2.26428 -8.74273,0.75542c1.66168,-1.58091 3.24884,-2.37333 4.7207,-2.46708z" id="path26798"/>
    <path d="m205.87499,375.75533c0.21119,0.00395 0.23604,0.29753 -0.0313,1.01742c-1.35062,3.51311 -9.80465,9.88902 -4.27,3.34634c0.4338,-0.73075 3.54599,-4.37856 4.3013,-4.36376z" id="path26796"/>
    <path d="m159.24243,380.22666c3.12809,1.67613 11.48024,0.01529 12.11233,1.24933l-0.26387,0.15394l-0.37268,0.07697c-3.37357,0.67548 -15.05805,1.26216 -11.47578,-1.48024z" id="path26794"/>
    <path d="m234.33882,384.14338c0.36523,0.0079 -0.10187,0.83585 -0.49692,0.84819c-3.7855,4.36721 -7.04328,12.37435 -8.82024,15.65063c0.48249,-5.54796 5.39898,-11.68111 8.92907,-16.34487c0.18535,-0.09671 0.30361,-0.15592 0.38809,-0.15395z" id="path26792"/>
    <path d="m322.21538,402.76981c1.33025,0.01085 4.25609,1.39438 1.00924,1.94306c-2.03288,-1.46297 -1.80728,-1.94948 -1.00924,-1.94306z" id="path26790"/>
    <path d="m213.73223,402.90845c0.77369,-0.04342 1.19209,0.13372 0.66785,0.74012c-4.18701,1.98057 -14.88313,-0.0523 -4.82952,0.13865c0.59381,-0.14358 2.87267,-0.80624 4.16167,-0.87877z" id="path26788"/>
    <path d="m236.93222,404.21946c0.86563,-0.01628 1.38838,0.23141 1.00924,1.01741c-4.43398,0.81611 -15.79596,0.94539 -5.5903,-0.21611c0.74339,-0.07056 3.13802,-0.79144 4.58106,-0.8013z" id="path26786"/>
    <path d="m247.72424,415.10517c-0.18734,0.31629 -0.54561,0.47911 -0.77618,0.75543c-4.93735,2.43944 -7.40653,9.13953 -13.3079,8.94315c5.90137,-1.28831 8.88337,-9.43163 14.08408,-9.69858z" id="path26784"/>
    <path d="m206.96174,416.35401c0.52375,-0.00444 1.1931,0.16875 2.04978,0.61677c-3.14348,4.6307 -4.87623,-0.59308 -2.04978,-0.61677z" id="path26782"/>
    <path d="m194.49264,417.4489c0.10336,0.01628 0.18386,0.11496 0.21715,0.33947c-1.36702,3.51262 -6.40425,10.82355 -8.6185,9.14347c3.29653,-0.93502 7.39709,-9.63837 8.40135,-9.48294z" id="path26780"/>
    <path d="m242.47582,431.68096c1.20799,-0.02714 1.72926,0.13026 -0.52773,0.64736c-3.9947,1.65245 -11.07724,0.02221 -3.07491,-0.16974c0.50288,-0.22401 2.39464,-0.45097 3.60264,-0.47762z" id="path26778"/>
    <path d="m195.1754,432.03523c0.37865,-0.02023 0.66736,0.16579 0.68376,0.74013c-2.65552,4.12199 -8.96287,5.11819 -10.26479,10.16139c-0.59531,2.86427 -6.87731,8.77883 -7.46914,7.07754c7.28528,-3.84913 6.67408,-13.56004 15.21804,-15.77398c-0.26883,-0.92269 0.9998,-2.13205 1.83213,-2.20508z" id="path26776"/>
    <path d="m217.5058,440.87082c2.13923,3.19782 7.88854,2.13303 8.63391,4.90306c-0.2584,-0.01677 -0.44921,-0.41496 -0.72996,-0.2773c-2.90845,0.36612 -9.16263,-3.22348 -7.90395,-4.62576z" id="path26774"/>
    <path d="m213.43706,442.75172c0.10783,-0.05872 0.29168,0.1194 0.57493,0.64785c-1.02415,7.49448 4.86728,13.23142 8.09029,17.3618c-2.66447,0.38288 -3.34524,4.66671 -3.97533,4.45603c-2.71962,-4.29124 -1.59064,-11.53556 -4.65859,-16.71394c0.38511,-0.73519 -0.49642,-5.49616 -0.0313,-5.75174z" id="path26772"/>
    <path d="m200.95503,490.35886c-1.43261,5.23069 -1.99263,-2.85144 0,0z" id="path2661"/>
    <path d="m189.9553,473.59755c3.95446,3.84469 8.79392,8.61848 6.95682,14.18026c1.42914,6.21111 -1.94294,-1.23502 -4.84493,-2.19274c1.44255,-4.77428 -7.83536,-8.45072 -2.11189,-11.98752z" id="path2663"/>
    <path d="m190.27134,483.78115c2.66645,5.39746 -2.65751,-0.40065 0,0z" id="path2665"/>
    <path d="m194.97962,507.57115c2.76633,4.40866 -2.42793,-0.27089 0,0z" id="path2667"/>
    <path d="m184.92949,491.1133c6.90714,0.72581 5.74684,9.1785 7.53722,12.2658c2.29078,2.93039 -1.26614,4.73579 1.44901,6.78199c1.26514,3.96903 -1.44801,6.70452 -6.25319,5.92345c-8.78447,-1.57301 -6.13592,-10.04001 -9.42649,-16.27135c0.0497,-4.76788 4.01657,-7.89168 6.69345,-8.69989z" id="path2669"/>
    <path d="m170.17457,529.46496c-3.61754,2.96937 -1.85846,-2.21099 0,0z" id="path2671"/>
    <path d="m161.93472,490.33419c1.54938,2.67431 -2.59639,10.26155 -2.2237,3.94091c1.4177,-1.36133 0.56549,-4.04453 2.2237,-3.94091z" id="line521"/>
    <path d="m141.61533,473.49985c-1.23631,7.67853 5.18632,14.12105 5.31502,21.21241c-2.41302,2.65359 -5.59428,5.14336 -9.77235,4.61541c-0.66785,8.24101 -10.44417,0.94588 -3.12062,-2.16116c2.70074,-3.61772 -7.19386,-7.62721 0.64847,-9.60778c-0.64202,-3.81903 -6.62389,0.52352 -6.44549,4.47873c-3.95297,6.35321 -9.00213,1.86955 -4.01707,-2.89586c2.33799,-2.62496 -0.563,-4.52362 0.93967,-7.87293c0.10584,-2.23861 6.46288,-4.64007 6.19703,-3.51557c-0.98588,6.0162 0.64401,3.68383 1.80778,-0.19589c1.76803,-1.22416 8.77007,-8.24595 8.44756,-4.05736z" id="path2674"/>
    <path d="m155.66811,469.92704c0.16398,7.29958 -5.03922,6.94432 -5.57787,14.12253c-9.91595,3.3641 -8.68361,-17.2868 2.8031,-13.60839c0.73345,-0.06315 2.5621,-1.49998 2.77477,-0.51414z" id="line523"/>
    <path d="m202.99934,484.9757c1.47186,6.14154 -5.69118,2.89092 -0.34585,-0.58519l0.22162,0.17072l0.12423,0.41447z" id="path2749"/>
    <path d="m228.98158,528.82205c0.42834,-0.01925 1.32229,0.59308 1.289,1.17186c-1.23783,5.59878 -1.85698,4.44468 -1.2582,-0.30839c-0.38163,-0.60887 -0.28771,-0.85212 -0.0308,-0.86347z" id="path26770"/>
   </g>
   <g display="inline" id="layer3">
    <path d="m126.12001,532.61493c-1.67758,0.02664 -3.21952,0.38486 -4.41013,1.20294c-5.59476,1.93271 -10.24589,5.5376 -16.7863,5.16507c-5.81839,-4.54682 -3.87992,1.63864 -6.28947,5.65897c-0.72002,6.90585 -6.73768,4.50834 -11.50657,4.50242c-0.1789,-0.24474 -0.31306,-0.49342 -0.404,-0.75542l-0.62115,0.50871c-0.48151,-0.09523 -0.97693,0.21612 -1.3352,0.50921c-0.83085,0.91134 -1.51113,-0.56447 -2.40707,0.35427c-1.74169,-0.63157 -2.28978,1.35788 -3.10572,2.42069c-0.23107,0.87285 -1.55038,1.55722 -1.25769,2.42119c1.79834,0.44407 -0.56449,1.33074 0.40349,2.1276c-0.13019,1.09835 -0.97743,1.58633 -1.64578,2.25145c0.05913,1.23601 -0.58537,2.51001 -0.06211,3.70062c-0.11678,1.31643 -0.4358,2.93236 -1.61498,3.77758c0.02037,1.24686 -0.75829,2.1059 -1.83213,2.60573c-0.64997,1.09686 -0.66984,2.86872 -1.08725,4.22512c-0.51928,0.93551 0.4179,2.97726 -1.3044,2.76016c-1.00725,-0.65625 -2.14072,-0.30987 -3.22996,-0.33947c-1.41919,-0.87976 -2.10146,0.95919 -3.18324,1.48025c-1.48975,0.30344 -2.47514,2.57019 -4.11496,1.46494c-1.37944,-0.72482 -2.17599,-2.61954 -3.8824,-2.77546c-1.58566,0.08289 -1.4008,2.22235 -2.00307,3.17611c-1.10564,0.55904 -0.87755,1.70969 -1.63088,2.43648c1.08924,1.01645 2.61726,1.71117 3.0128,3.28418c1.26664,-0.17813 2.64757,-0.225 3.8357,0.40114c1.18116,0.03652 1.94542,2.00722 3.0282,0.8171c0.7245,-1.27005 1.55386,0.88568 0.69867,1.26413c-1.88232,1.35146 -4.34007,2.04915 -5.37315,4.31738c-0.1466,1.09588 -2.00506,0.81364 -1.87884,1.77333c-1.66716,0.24967 -3.36462,-0.06019 -5.04668,0.13865c-0.82289,-0.33897 -1.24278,-1.49356 -2.09649,-0.27729c-0.86513,0.7564 -2.28234,1.43041 -2.40706,2.62102c0.40698,1.27893 -0.72052,2.0832 -1.84803,1.88139c-0.72251,1.27893 -2.17201,1.61988 -3.55593,1.81922c-0.5143,0.54966 1.75411,1.4837 0.31058,2.03533c0.82438,0.78997 1.76256,1.59621 2.40706,2.59044c1.3213,1.51133 2.30817,3.6789 4.41012,4.2251c1.49572,0.00938 1.59113,1.47235 2.00308,2.54405c1.00277,1.42499 2.13027,3.13122 4.02202,3.40753c1.65623,1.58287 0.78762,4.26409 1.77052,6.19877c2.53129,0.82894 5.41737,0.599 8.05898,1.17186c0.65096,0.61974 0.70562,2.31067 1.86343,1.18716c1.48329,0.65279 0.81742,2.55984 1.97226,3.39222c1.45497,-0.35328 1.51907,1.65541 2.85727,1.48025c1.08824,-0.4944 1.95536,0.1722 2.90397,0.60148c1.38143,-0.22895 1.84853,-1.74669 2.90348,-2.51346c0.40498,-0.73717 1.81523,-1.80491 2.18991,-0.5245c0.21864,1.01939 -1.93549,1.45409 -0.32647,1.94307c0.89892,0.51414 2.43786,-0.96414 2.53128,0.66315c0.73544,0.55755 1.30888,1.65344 2.29824,0.69374c1.44702,0.16776 2.29575,-1.27844 2.49998,-2.52876c1.07234,-0.78254 0.04174,-1.91049 0.18684,-2.86821c1.08577,-0.375 1.48031,-1.38156 1.58367,-2.45129c0.93569,0.11349 1.55534,-0.52845 2.51588,-0.41644c1.34764,-0.14803 0.66289,-1.59817 0.72948,-2.3901c0.60177,-1.10328 -0.39952,-1.85179 -1.00924,-2.52876c0.74388,-1.49159 -2.32855,-1.11758 -1.38192,-2.37431c0.80649,-0.59259 1.51957,-1.2069 1.55286,-2.25145c1.3531,-0.23882 2.40557,-1.15558 3.19865,-2.22037c0.95855,-1.7536 2.48209,-3.10161 3.37008,-4.88777c1.47633,-0.83189 2.45377,1.50689 3.94402,1.23354c0.8547,0.54966 1.27459,1.78024 2.23612,2.34372c0.92476,0.52104 0.24896,2.3679 1.50615,2.18977c1.27856,0.75591 1.36354,2.59685 1.81673,3.90094c-0.88103,1.29226 0.67679,2.24257 1.19607,3.25358c-0.07454,2.07827 1.06042,4.08893 2.88808,5.11869c0.74288,0.21464 1.45248,2.0832 2.04978,0.90986c0.55306,-1.73485 2.16108,-0.03405 3.18323,0.21612c1.34417,0.87925 1.89027,2.86526 1.58417,4.40965c-0.72152,1.40524 -1.71883,3.01426 -0.8696,4.64154c1.12204,0.89506 1.21098,3.34734 3.07492,2.89833c0.56896,-0.87335 1.84505,-0.73025 2.71713,-1.18716c1.05147,0.375 1.89971,-0.06365 2.51588,-0.92515c0.48003,-0.95821 1.47435,-0.71002 1.92555,0.13865c0.46214,1.38453 1.72182,-0.24818 2.28283,0.5245c0.78215,-0.67302 2.4995,-0.66365 2.1273,-2.06593c0.24051,-1.49702 1.92207,0.18503 2.43787,-0.95624c0.57394,-0.98337 1.69597,-0.84818 2.08059,0.21612l0.77667,0.5087c0.16896,-0.21314 0.47953,-0.41199 0.99383,-0.58616c1.37597,2.50703 9.22177,1.92628 5.80746,4.56408c4.49112,1.64801 11.04048,-3.99469 11.75553,-8.91207c-0.3533,-4.82313 0.76824,-9.27521 6.80129,-8.68114c5.01736,2.95803 7.04229,-0.54818 9.81409,-5.11918c1.03607,-5.92838 -3.28959,-7.47819 -7.67089,-3.4386c-0.2569,-0.83437 5.9764,-7.89465 2.37576,-10.13031c-0.51233,-3.17117 -1.4843,-3.92857 -2.82646,-6.22936c0.04373,-6.06457 7.70368,1.50096 7.82642,4.56408c0.0805,4.78564 -2.53328,8.57506 1.11806,12.8288c2.31016,0.08832 3.08535,-4.35884 2.88857,-6.96949c3.14349,-4.17281 -0.242,-6.40848 -0.55903,-10.73178c-2.02543,-3.69814 -2.13773,-13.13027 -8.1683,-10.90151c-5.18482,-0.97746 -10.23348,1.79553 -13.05944,6.02904c-3.20113,-7.10419 6.83706,-9.09266 10.49734,-12.76712c3.83918,-4.23202 -6.54934,-12.79524 -3.72687,-6.18298c3.46102,4.11015 2.65204,2.77102 -1.24229,1.14078c-1.24825,-4.646 -3.65581,-10.00992 -7.46914,-13.72286c-4.7361,0.24276 2.12681,-10.14511 -5.1863,-6.89252c1.60056,-5.96587 0.05863,-18.08711 -9.08462,-13.30691c-2.79167,-1.56264 -7.14862,-3.08088 -10.83873,-3.02216zm-1.22688,37.28392c1.55038,6.66455 -3.53953,1.72793 0,0zm-0.8542,5.93627c0.62264,-0.02073 1.12055,0.66759 1.10266,2.46708c3.65084,3.26641 8.60112,-3.59996 11.38235,0.47812c-2.04531,3.64633 -6.26511,8.10829 -1.59957,10.115c-4.63176,2.37235 -3.42126,6.28463 -5.46607,8.48033c-3.11965,-0.21612 -5.06556,-3.86788 -9.16164,-1.27992c-6.62389,-4.77576 6.28499,-8.08362 1.86343,-14.29325c-1.47881,-2.47102 0.50885,-5.92147 1.87884,-5.96736zm-66.26073,17.77824c1.4654,-0.06414 2.90199,0.27533 3.99123,1.14126c-0.01739,2.38122 0.27827,4.82906 1.95636,7.53988c3.40337,-0.04391 2.90845,10.03656 0.85419,2.62151c-3.20312,-3.66508 -9.96316,-7.02573 -13.60307,-6.55354c0.19331,-2.5396 3.57829,-4.6075 6.80129,-4.74911zm13.3084,22.01864c1.65621,-0.0291 1.49075,2.69208 3.50922,3.70062c0.45269,3.91327 4.49857,7.6356 -0.01541,5.76703c1.33373,-2.1202 -5.40694,-6.75239 -5.40396,-8.69644c0.83532,-0.53782 1.44603,-0.76282 1.91015,-0.77121z" id="path2494"/>
   </g>
   <g display="inline" id="layer6">
    <path d="m183.52223,823.26894c2.41253,1.75458 -2.8826,0.93058 0,0z" id="path2647"/>
    <path d="m182.19646,812.73996c-0.20573,3.24272 -1.80132,-1.17975 0,0z" id="path2649"/>
    <path d="m214.70369,694.96771c2.34396,-1.39883 6.73619,5.5297 3.86502,6.60239c-0.5968,-4.08844 -8.06545,-3.0424 -3.86502,-6.60239z" id="path2651"/>
    <path d="m227.29156,686.37588c7.76232,-0.75394 7.79711,7.48313 11.41664,10.93161c4.90605,-3.85753 9.8275,0.26545 3.25728,3.75834c-4.78778,2.24553 -7.30366,8.02934 -10.80792,10.0183c-4.04738,0.30098 -5.15699,-2.90129 -7.93723,-5.50849c-3.27219,-4.89764 -4.591,-11.78669 -2.91242,-17.01492c2.70223,-0.64193 4.19347,-1.68945 6.98365,-2.18484z" id="path2653"/>
    <path d="m309.85461,836.2196c0.40946,-0.87828 0.69886,-1.81868 0.69886,-1.81868c0,0 1.58486,-11.52748 0.62115,-16.58567c-0.4362,-2.28938 -2.24328,-0.30937 -4.73586,-2.475c-2.49258,-2.16562 -2.55733,-5.52294 -5.23441,-6.1875c-0.74776,-0.18562 -3.98809,1.79437 -4.73586,1.485c-2.71321,-1.12256 -3.11571,-2.97 -5.23435,-7.6725c-2.11866,-4.7025 -3.92579,-9.1575 -3.24035,-11.13749c2.31613,-6.69038 7.19082,-12.68887 8.97321,-16.58251c0.31157,-0.68062 -1.30858,-0.43312 -4.73586,0c-3.96484,0.50107 -8.9732,-8.16749 -8.9732,-8.16749c0,0 0.74776,-1.79437 3.48959,-2.97c2.74183,-1.17563 7.00686,-1.07794 7.47769,-1.7325c0.73926,-1.02773 1.55783,-4.95 0.4985,-5.445c-1.05932,-0.49499 -4.11272,3.52687 -4.73585,3.465c-1.61334,-0.1602 -2.86646,-1.98 -1.74482,-3.7125c2.32775,-3.59546 9.12417,-10.78894 8.22544,-12.1275c-0.24925,-0.37125 -7.97937,-4.66378 -8.22544,-5.19749c-0.61086,-1.32482 0.99706,-7.92 2.49258,-10.89001c1.49551,-2.96999 1.86944,-0.30937 3.48959,-0.99c1.62014,-0.68062 1.80708,-1.79437 2.99104,-1.73249c1.18395,0.06187 0.06236,1.485 1.74481,1.97999c1.68251,0.495 3.11567,-0.86625 4.98511,0c1.86945,0.86625 1.12169,3.21751 2.49258,3.46501c1.37089,0.2475 2.99104,-2.475 2.99104,-2.475l-0.74776,-5.1975l-4.48661,-0.7425c0,0 -1.86944,-5.38313 -3.73884,-8.6625c-1.86945,-3.27937 -2.80415,-2.97 -2.99109,-4.455c-0.18693,-1.485 3.42729,0.06187 2.49258,-1.98c-0.93469,-2.04188 -5.23759,-5.57074 -5.23759,-5.57074c0,0 1.85554,1.33015 -0.48791,-0.34302c-2.34347,-1.67317 -3.42723,-1.49455 -6.35109,-4.30209c-7.49696,-10.7747 -16.4007,2.65112 -25.46693,0.16974c-2.49004,-1.71166 -11.31229,-6.46571 -6.33568,-0.5245c-3.71593,1.9036 -11.08718,5.85092 -16.52244,6.09072c-2.4821,2.37579 -6.12051,9.58557 -8.137,8.86616c0.00149,4.83054 -3.30797,9.51848 -7.77971,12.70544c-5.99082,3.14997 -11.23776,7.20978 -13.58766,13.76925c1.72529,1.51872 2.89055,-1.54785 5.43526,-0.87878c3.27318,-4.14715 5.7831,3.31674 7.91934,0.97153c-0.90091,-6.88165 8.37552,-9.90037 14.81455,-9.45234c6.75259,1.90902 -0.11528,8.69051 4.54976,11.81137c0.90985,4.3381 4.95723,2.48927 5.21762,2.9294c-4.97761,2.52875 -9.23518,11.51532 -2.22071,14.89521c5.14506,-2.43402 5.19426,0.86299 0.29516,1.66528c-2.55613,1.55722 -1.87188,10.47964 -4.64318,14.61742c-2.95665,7.61734 -10.7468,9.80613 -16.08765,14.06233c-1.96828,4.53399 -10.29311,0.40558 -11.92598,4.08597c-2.22419,-0.08339 -3.35467,4.91984 -7.11185,5.56621c0.81245,4.91787 -4.4469,-0.01825 -5.49738,3.34634c-1.34565,-0.31085 -8.03314,-4.06869 -6.70837,1.31051c-1.85001,3.64091 -8.26172,4.13827 -10.68368,6.79976c-2.6421,5.8815 5.54459,0.09128 8.66472,4.16294c2.30072,5.04714 -0.19976,6.79136 -3.8198,8.68114c-4.23869,0.56052 0.8557,2.06643 1.49075,4.64107c-0.03826,-5.5006 7.01149,0.14012 10.93215,-2.09702c8.11811,-1.30656 -2.95367,2.72365 -4.59647,1.89668c-1.41273,0.62319 -6.35506,0.03849 -0.8542,2.18979c-0.01441,3.15291 3.94601,5.38808 7.09695,4.07067c2.16407,-4.55373 7.57151,-1.52909 10.48144,-4.14765c-0.31504,-7.38741 8.19117,-5.53217 13.55637,-6.50716c-2.29576,-4.88826 1.18414,0.20527 2.67142,-2.9299c-0.18585,1.69439 5.52123,5.84747 0.71406,4.00949c-1.51609,2.96888 5.00991,5.54451 8.27663,3.71591c1.93449,4.04453 8.66969,-1.85326 5.62161,2.65211c-4.55275,3.80274 -7.61871,-1.19554 -10.38853,3.09914c-0.50635,3.71196 2.20581,6.52738 5.79205,5.22724c2.51838,-2.45376 6.90416,-1.17334 9.92242,-1.37219c-4.10552,-4.13383 5.64347,-5.85536 7.05024,-3.93202c4.54876,2.36247 3.02075,11.62288 8.43216,10.68539c5.4785,7.99974 16.66308,8.97472 24.61274,5.44286c-0.8075,-5.56621 5.63254,-7.6726 9.0379,-11.67222c2.42247,2.32299 7.86717,0.18453 11.75504,-1.86561z" id="path26826"/>
   </g>
 </svg>
 </g>
</g>
</svg>
